<svg width="173" height="182" viewBox="0 0 173 182" fill="none" xmlns="http://www.w3.org/2000/svg">
<circle cx="3" cy="3" r="3" fill="#DD9D5C"/>
<circle cx="18.1818" cy="3" r="3" fill="#DD9D5C"/>
<circle cx="33.3636" cy="3" r="3" fill="#DD9D5C"/>
<circle cx="48.5454" cy="3" r="3" fill="#DD9D5C"/>
<circle cx="63.7273" cy="3" r="3" fill="#DD9D5C"/>
<circle cx="78.9091" cy="3" r="3" fill="#DD9D5C"/>
<circle cx="94.0909" cy="3" r="3" fill="#DD9D5C"/>
<circle cx="109.273" cy="3" r="3" fill="#DD9D5C"/>
<circle cx="124.455" cy="3" r="3" fill="#DD9D5C"/>
<circle cx="139.636" cy="3" r="3" fill="#DD9D5C"/>
<circle cx="154.818" cy="3" r="3" fill="#DD9D5C"/>
<circle cx="170" cy="3" r="3" fill="#DD9D5C"/>
<circle cx="3" cy="19" r="3" fill="#DD9D5C"/>
<circle cx="18.1818" cy="19" r="3" fill="#DD9D5C"/>
<circle cx="33.3636" cy="19" r="3" fill="#DD9D5C"/>
<circle cx="48.5454" cy="19" r="3" fill="#DD9D5C"/>
<circle cx="63.7273" cy="19" r="3" fill="#DD9D5C"/>
<circle cx="78.9091" cy="19" r="3" fill="#DD9D5C"/>
<circle cx="94.0909" cy="19" r="3" fill="#DD9D5C"/>
<circle cx="109.273" cy="19" r="3" fill="#DD9D5C"/>
<circle cx="124.455" cy="19" r="3" fill="#DD9D5C"/>
<circle cx="139.636" cy="19" r="3" fill="#DD9D5C"/>
<circle cx="154.818" cy="19" r="3" fill="#DD9D5C"/>
<circle cx="170" cy="19" r="3" fill="#DD9D5C"/>
<circle cx="3" cy="35" r="3" fill="#DD9D5C"/>
<circle cx="18.1818" cy="35" r="3" fill="#DD9D5C"/>
<circle cx="33.3636" cy="35" r="3" fill="#DD9D5C"/>
<circle cx="48.5454" cy="35" r="3" fill="#DD9D5C"/>
<circle cx="63.7273" cy="35" r="3" fill="#DD9D5C"/>
<circle cx="78.9091" cy="35" r="3" fill="#DD9D5C"/>
<circle cx="94.0909" cy="35" r="3" fill="#DD9D5C"/>
<circle cx="109.273" cy="35" r="3" fill="#DD9D5C"/>
<circle cx="124.455" cy="35" r="3" fill="#DD9D5C"/>
<circle cx="139.636" cy="35" r="3" fill="#DD9D5C"/>
<circle cx="154.818" cy="35" r="3" fill="#DD9D5C"/>
<circle cx="170" cy="35" r="3" fill="#DD9D5C"/>
<circle cx="3" cy="51" r="3" fill="#DD9D5C"/>
<circle cx="18.1818" cy="51" r="3" fill="#DD9D5C"/>
<circle cx="33.3636" cy="51" r="3" fill="#DD9D5C"/>
<circle cx="48.5454" cy="51" r="3" fill="#DD9D5C"/>
<circle cx="63.7273" cy="51" r="3" fill="#DD9D5C"/>
<circle cx="78.9091" cy="51" r="3" fill="#DD9D5C"/>
<circle cx="94.0909" cy="51" r="3" fill="#DD9D5C"/>
<circle cx="109.273" cy="51" r="3" fill="#DD9D5C"/>
<circle cx="124.455" cy="51" r="3" fill="#DD9D5C"/>
<circle cx="139.636" cy="51" r="3" fill="#DD9D5C"/>
<circle cx="154.818" cy="51" r="3" fill="#DD9D5C"/>
<circle cx="170" cy="51" r="3" fill="#DD9D5C"/>
<circle cx="3" cy="67" r="3" fill="#DD9D5C"/>
<circle cx="18.1818" cy="67" r="3" fill="#DD9D5C"/>
<circle cx="33.3636" cy="67" r="3" fill="#DD9D5C"/>
<circle cx="48.5454" cy="67" r="3" fill="#DD9D5C"/>
<circle cx="63.7273" cy="67" r="3" fill="#DD9D5C"/>
<circle cx="78.9091" cy="67" r="3" fill="#DD9D5C"/>
<circle cx="94.0909" cy="67" r="3" fill="#DD9D5C"/>
<circle cx="109.273" cy="67" r="3" fill="#DD9D5C"/>
<circle cx="124.455" cy="67" r="3" fill="#DD9D5C"/>
<circle cx="139.636" cy="67" r="3" fill="#DD9D5C"/>
<circle cx="154.818" cy="67" r="3" fill="#DD9D5C"/>
<circle cx="170" cy="67" r="3" fill="#DD9D5C"/>
<circle cx="3" cy="83" r="3" fill="#DD9D5C"/>
<circle cx="18.1818" cy="83" r="3" fill="#DD9D5C"/>
<circle cx="33.3636" cy="83" r="3" fill="#DD9D5C"/>
<circle cx="48.5454" cy="83" r="3" fill="#DD9D5C"/>
<circle cx="63.7273" cy="83" r="3" fill="#DD9D5C"/>
<circle cx="78.9091" cy="83" r="3" fill="#DD9D5C"/>
<circle cx="94.0909" cy="83" r="3" fill="#DD9D5C"/>
<circle cx="109.273" cy="83" r="3" fill="#DD9D5C"/>
<circle cx="124.455" cy="83" r="3" fill="#DD9D5C"/>
<circle cx="139.636" cy="83" r="3" fill="#DD9D5C"/>
<circle cx="154.818" cy="83" r="3" fill="#DD9D5C"/>
<circle cx="170" cy="83" r="3" fill="#DD9D5C"/>
<circle cx="3" cy="99" r="3" fill="#DD9D5C"/>
<circle cx="18.1818" cy="99" r="3" fill="#DD9D5C"/>
<circle cx="33.3636" cy="99" r="3" fill="#DD9D5C"/>
<circle cx="48.5454" cy="99" r="3" fill="#DD9D5C"/>
<circle cx="63.7273" cy="99" r="3" fill="#DD9D5C"/>
<circle cx="78.9091" cy="99" r="3" fill="#DD9D5C"/>
<circle cx="94.0909" cy="99" r="3" fill="#DD9D5C"/>
<circle cx="109.273" cy="99" r="3" fill="#DD9D5C"/>
<circle cx="124.455" cy="99" r="3" fill="#DD9D5C"/>
<circle cx="139.636" cy="99" r="3" fill="#DD9D5C"/>
<circle cx="154.818" cy="99" r="3" fill="#DD9D5C"/>
<circle cx="170" cy="99" r="3" fill="#DD9D5C"/>
<circle cx="3" cy="115" r="3" fill="#DD9D5C"/>
<circle cx="18.1818" cy="115" r="3" fill="#DD9D5C"/>
<circle cx="33.3636" cy="115" r="3" fill="#DD9D5C"/>
<circle cx="48.5454" cy="115" r="3" fill="#DD9D5C"/>
<circle cx="63.7273" cy="115" r="3" fill="#DD9D5C"/>
<circle cx="78.9091" cy="115" r="3" fill="#DD9D5C"/>
<circle cx="94.0909" cy="115" r="3" fill="#DD9D5C"/>
<circle cx="109.273" cy="115" r="3" fill="#DD9D5C"/>
<circle cx="124.455" cy="115" r="3" fill="#DD9D5C"/>
<circle cx="139.636" cy="115" r="3" fill="#DD9D5C"/>
<circle cx="154.818" cy="115" r="3" fill="#DD9D5C"/>
<circle cx="170" cy="115" r="3" fill="#DD9D5C"/>
<circle cx="3" cy="131" r="3" fill="#DD9D5C"/>
<circle cx="18.1818" cy="131" r="3" fill="#DD9D5C"/>
<circle cx="33.3636" cy="131" r="3" fill="#DD9D5C"/>
<circle cx="48.5454" cy="131" r="3" fill="#DD9D5C"/>
<circle cx="63.7273" cy="131" r="3" fill="#DD9D5C"/>
<circle cx="78.9091" cy="131" r="3" fill="#DD9D5C"/>
<circle cx="94.0909" cy="131" r="3" fill="#DD9D5C"/>
<circle cx="109.273" cy="131" r="3" fill="#DD9D5C"/>
<circle cx="124.455" cy="131" r="3" fill="#DD9D5C"/>
<circle cx="139.636" cy="131" r="3" fill="#DD9D5C"/>
<circle cx="154.818" cy="131" r="3" fill="#DD9D5C"/>
<circle cx="170" cy="131" r="3" fill="#DD9D5C"/>
<circle cx="3" cy="147" r="3" fill="#DD9D5C"/>
<circle cx="18.1818" cy="147" r="3" fill="#DD9D5C"/>
<circle cx="33.3636" cy="147" r="3" fill="#DD9D5C"/>
<circle cx="48.5454" cy="147" r="3" fill="#DD9D5C"/>
<circle cx="63.7273" cy="147" r="3" fill="#DD9D5C"/>
<circle cx="78.9091" cy="147" r="3" fill="#DD9D5C"/>
<circle cx="94.0909" cy="147" r="3" fill="#DD9D5C"/>
<circle cx="109.273" cy="147" r="3" fill="#DD9D5C"/>
<circle cx="124.455" cy="147" r="3" fill="#DD9D5C"/>
<circle cx="139.636" cy="147" r="3" fill="#DD9D5C"/>
<circle cx="154.818" cy="147" r="3" fill="#DD9D5C"/>
<circle cx="170" cy="147" r="3" fill="#DD9D5C"/>
<circle cx="3" cy="163" r="3" fill="#DD9D5C"/>
<circle cx="18.1818" cy="163" r="3" fill="#DD9D5C"/>
<circle cx="33.3636" cy="163" r="3" fill="#DD9D5C"/>
<circle cx="48.5454" cy="163" r="3" fill="#DD9D5C"/>
<circle cx="63.7273" cy="163" r="3" fill="#DD9D5C"/>
<circle cx="78.9091" cy="163" r="3" fill="#DD9D5C"/>
<circle cx="94.0909" cy="163" r="3" fill="#DD9D5C"/>
<circle cx="109.273" cy="163" r="3" fill="#DD9D5C"/>
<circle cx="124.455" cy="163" r="3" fill="#DD9D5C"/>
<circle cx="139.636" cy="163" r="3" fill="#DD9D5C"/>
<circle cx="154.818" cy="163" r="3" fill="#DD9D5C"/>
<circle cx="170" cy="163" r="3" fill="#DD9D5C"/>
<circle cx="3" cy="179" r="3" fill="#DD9D5C"/>
<circle cx="18.1818" cy="179" r="3" fill="#DD9D5C"/>
<circle cx="33.3636" cy="179" r="3" fill="#DD9D5C"/>
<circle cx="48.5454" cy="179" r="3" fill="#DD9D5C"/>
<circle cx="63.7273" cy="179" r="3" fill="#DD9D5C"/>
<circle cx="78.9091" cy="179" r="3" fill="#DD9D5C"/>
<circle cx="94.0909" cy="179" r="3" fill="#DD9D5C"/>
<circle cx="109.273" cy="179" r="3" fill="#DD9D5C"/>
<circle cx="124.455" cy="179" r="3" fill="#DD9D5C"/>
<circle cx="139.636" cy="179" r="3" fill="#DD9D5C"/>
<circle cx="154.818" cy="179" r="3" fill="#DD9D5C"/>
<circle cx="170" cy="179" r="3" fill="#DD9D5C"/>
</svg>
