<svg width="25" height="24" viewBox="0 0 25 24" fill="none" xmlns="http://www.w3.org/2000/svg">
<path d="M19.5621 20.2183C17.6077 22.1726 12.6028 20.3363 8.38327 16.1167C4.16372 11.8972 2.32739 6.89227 4.2817 4.93795L5.56847 3.65118C6.4568 2.76286 7.92054 2.78634 8.83784 3.70363L10.8309 5.69672C11.7482 6.61401 11.7717 8.07776 10.8834 8.96609L10.607 9.24247C10.1274 9.72209 10.0804 10.4958 10.5261 11.0359C10.956 11.5568 11.4194 12.0756 11.9219 12.5781C12.4244 13.0806 12.9432 13.544 13.4641 13.9739C14.0042 14.4196 14.7779 14.3726 15.2575 13.893L15.5339 13.6166C16.4222 12.7283 17.886 12.7518 18.8033 13.6691L20.7964 15.6622C21.7137 16.5795 21.7371 18.0432 20.8488 18.9315L19.5621 20.2183Z" stroke="#B88D43" stroke-width="1.5"/>
</svg>
