<svg width="35" height="35" viewBox="0 0 35 35" fill="none" xmlns="http://www.w3.org/2000/svg">
<circle cx="17.5" cy="17.5" r="17.5" fill="#B88D43"/>
<path d="M13.3871 14.9336H10.2528V24.9288H13.3871V14.9336Z" fill="#FFFDF9"/>
<path d="M21.8657 14.7161C21.7502 14.7016 21.6274 14.6944 21.5046 14.6872C19.7497 14.615 18.7603 15.6549 18.4136 16.1027C18.3197 16.2254 18.2764 16.2977 18.2764 16.2977V14.9616H15.2793V24.9568H18.2764H18.4136C18.4136 23.9385 18.4136 22.9274 18.4136 21.9091C18.4136 21.3603 18.4136 20.8114 18.4136 20.2625C18.4136 19.5837 18.3631 18.8615 18.7025 18.2404C18.9914 17.7204 19.5114 17.4604 20.0963 17.4604C21.8296 17.4604 21.8657 19.0276 21.8657 19.172C21.8657 19.1792 21.8657 19.1865 21.8657 19.1865V25.0001H25.0001V18.4787C25.0001 16.2471 23.8662 14.9327 21.8657 14.7161Z" fill="#FFFDF9"/>
<path d="M11.8199 13.6399C12.8251 13.6399 13.6399 12.8251 13.6399 11.8199C13.6399 10.8148 12.8251 10 11.8199 10C10.8148 10 10 10.8148 10 11.8199C10 12.8251 10.8148 13.6399 11.8199 13.6399Z" fill="#FFFDF9"/>
</svg>
